<?xml version="1.0" encoding="UTF-8"?>
<svg width="664px" height="138px" viewBox="0 0 664 138" version="1.1" xmlns="http://www.w3.org/2000/svg" xmlns:xlink="http://www.w3.org/1999/xlink">
    <!-- Generator: Sketch 54.1 (76490) - https://sketchapp.com -->
    <title>Group 9</title>
    <desc>Created with Sketch.</desc>
    <defs>
        <path d="M62.0070166,0.475611229 L61.9994994,0.480675351 L0.805084746,27.3078622 L61.9994994,54.1426452 C62.510664,54.3705307 63.0794598,54.3705307 63.6106701,54.1426452 L63.6106701,54.1426452 L124.805085,27.3078622 L63.6106701,0.480675351 C63.3500764,0.366732604 63.0819655,0.313559322 62.8138547,0.313559322 L62.8138547,0.313559322 C62.5407325,0.313559322 62.2676103,0.369264665 62.0070166,0.475611229 L62.0070166,0.475611229 Z" id="path-1"></path>
        <path d="M64.7877216,1.27077716 L4.45660628,27.4506118 C2.04509558,28.4909608 0.489135038,30.8910642 0.489135038,33.5603807 L0.489135038,33.5603807 C0.489135038,36.2296971 2.04509558,38.6252376 4.44291748,39.6633051 L4.44291748,39.6633051 L31.1566154,51.2554393 L4.45204335,62.8407291 C2.04509558,63.8810781 0.489135038,66.2766185 0.489135038,68.9504979 L0.489135038,68.9504979 C0.489135038,71.6198144 2.04509558,74.0176363 4.44291748,75.0534223 L4.44291748,75.0534223 L31.154334,86.6387121 L4.45204335,98.2217205 C2.04509558,99.2666324 0.489135038,101.664454 0.489135038,104.336052 L0.489135038,104.336052 C0.489135038,107.005369 2.04509558,109.405472 4.44291748,110.438977 L4.44291748,110.438977 L64.7922845,136.623374 C66.1383501,137.20743 67.5848002,137.508583 69.0517836,137.510865 L69.0517836,137.510865 C70.5027966,137.510865 71.9560911,137.216556 73.3112826,136.623374 L73.3112826,136.623374 L133.649242,110.448103 C136.060753,109.405472 137.616714,107.005369 137.616714,104.336052 L137.616714,104.336052 C137.616714,101.664454 136.060753,99.2666324 133.66065,98.2285649 L133.66065,98.2285649 L106.951515,86.6432751 L133.651524,75.0557038 C136.060753,74.0176363 137.618995,71.6198144 137.618995,68.9504979 L137.618995,68.9504979 C137.618995,66.2766185 136.060753,63.8787966 133.66065,62.8407291 L133.66065,62.8407291 L106.949233,51.2508764 L133.651524,39.6655866 C136.060753,38.6229561 137.618995,36.2274157 137.618995,33.5580992 L137.618995,33.5580992 C137.618995,30.8865013 136.060753,28.4863979 133.66065,27.4528933 L133.66065,27.4528933 L73.3226899,1.27534009 C71.9697799,0.679877188 70.5119225,0.381005001 69.0563465,0.381005001 L69.0563465,0.381005001 C67.6007705,0.381005001 66.1451945,0.677595721 64.7877216,1.27077716 L64.7877216,1.27077716 Z M68.3194326,57.7348058 L12.6037252,33.5603807 L68.3194326,9.38595554 L68.3285585,9.38139261 C68.7939778,9.18746791 69.3050264,9.17606057 69.7864159,9.38595554 L69.7864159,9.38595554 L125.504405,33.5603807 L69.7864159,57.7348058 C69.5445804,57.8397533 69.2936191,57.8899455 69.0472206,57.8899455 L69.0472206,57.8899455 C68.7985407,57.8899455 68.5521423,57.8397533 68.3194326,57.7348058 L68.3194326,57.7348058 Z M68.3194326,93.124923 L12.6037252,68.945935 L42.2696416,56.0761792 L64.794566,65.8522656 C66.1406316,66.4317583 67.5870817,66.7374749 69.054065,66.7397563 L69.054065,66.7397563 C70.5050781,66.7397563 71.9583726,66.4408841 73.3112826,65.8522656 L73.3112826,65.8522656 L95.836207,56.0784607 L125.504405,68.9527794 L69.7864159,93.124923 C69.5445804,93.2275891 69.2936191,93.2777813 69.0472206,93.2777813 L69.0472206,93.2777813 C68.7985407,93.2777813 68.5521423,93.2275891 68.3194326,93.124923 L68.3194326,93.124923 Z M73.3112826,101.23782 L95.8384885,91.4617335 L125.504405,104.336052 L69.7864159,128.510477 C69.3027449,128.715809 68.7871334,128.715809 68.3194326,128.510477 L68.3194326,128.510477 L12.6037252,104.336052 L42.2673601,91.4617335 L64.794566,101.23782 C66.1406316,101.817313 67.5870817,102.120748 69.054065,102.123029 L69.054065,102.123029 C70.5050781,102.123029 71.9583726,101.82872 73.3112826,101.23782 L73.3112826,101.23782 Z" id="path-3"></path>
    </defs>
    <g id="Page-1" stroke="none" stroke-width="1" fill="none" fill-rule="evenodd">
        <g id="Group-9">
            <polygon id="Fill-1" fill="#FFFFFF" points="182 114 194.868932 114 194.868932 27.1733333 182 27.1733333"></polygon>
            <polygon id="Fill-2" fill="#FFFFFF" points="232.116391 114 213.743955 60.6665453 213.743955 114 202.23932 114 202.23932 27.1733333 214.307029 27.1733333 231.681288 78.4860091 231.681288 27.1733333 243.185922 27.1733333 243.185922 114"></polygon>
            <polygon id="Fill-3" fill="#FFFFFF" points="284.483495 40.1918853 263.168647 40.1918853 263.168647 63.1926347 278.68182 63.1926347 278.68182 74.9487024 263.168647 74.9487024 263.168647 114 250.556311 114 250.556311 27.1733333 284.483495 27.1733333"></polygon>
            <path d="M308.565504,65.6164612 C312.874365,65.6164612 314.521871,64.9895472 315.915914,62.9848635 C317.183226,60.9787386 318.070344,57.2172544 318.070344,52.954239 C318.070344,48.440458 317.183226,44.4282082 315.53572,42.5474661 C314.268408,40.7921068 312.620903,40.2920168 308.565504,40.2920168 L304.510106,40.2920168 L304.510106,65.6164612 L308.565504,65.6164612 Z M304.294827,113.552017 L291.853883,113.552017 L291.853883,26.7253501 L309.271204,26.7253501 C323.701269,26.7253501 330.04758,35.571605 330.04758,52.3837023 C330.04758,63.2508375 327.80678,69.0650454 321.712148,73.615295 L331.630583,113.552017 L318.383123,113.552017 L310.26648,77.0294351 L304.294827,77.0294351 L304.294827,113.552017 Z" id="Fill-4" fill="#FFFFFF"></path>
            <path d="M351.657193,83.470664 C351.657193,91.4319414 351.913198,95.2230259 352.553209,96.9921987 C353.577227,100.025066 355.881268,101.794239 358.953322,101.794239 C362.153378,101.794239 364.586892,99.7737798 365.481436,96.2325292 C365.865443,94.5911785 366.121447,90.547355 366.121447,83.470664 L366.121447,56.8081555 C366.121447,48.5941391 365.865443,45.0557936 365.225432,43.2866208 C364.201414,40.2537532 361.897373,38.4831279 358.953322,38.4831279 C355.625263,38.4831279 353.19322,40.5079447 352.298676,44.0448377 C351.913198,45.6861885 351.657193,49.9827509 351.657193,56.8081555 L351.657193,83.470664 Z M378.77767,84.8630578 C378.77767,97.3741635 377.760976,101.924185 373.694199,106.854827 C370.262856,111.02568 364.798125,113.552017 358.952133,113.552017 C352.980516,113.552017 347.514324,111.02568 344.084442,106.854827 C340.017665,101.924185 339.000971,97.2492267 339.000971,84.8630578 L339.000971,55.4157619 C339.000971,43.0281402 340.017665,38.3531822 344.084442,33.4239925 C347.514324,29.2545925 352.980516,26.7253501 358.952133,26.7253501 C364.798125,26.7253501 370.389943,29.2545925 373.694199,33.4239925 C377.760976,38.3531822 378.77767,42.9032035 378.77767,55.4157619 L378.77767,84.8630578 Z" id="Fill-6" fill="#FFFFFF"></path>
            <polygon id="Fill-8" fill="#FFFFFF" points="416.025129 114 397.652693 60.6665453 397.652693 114 386.148058 114 386.148058 27.1733333 398.215767 27.1733333 415.590026 78.4860091 415.590026 27.1733333 427.09466 27.1733333 427.09466 114"></polygon>
            <polygon id="Fill-10" fill="#FFFFFF" points="459.103974 114 447.891887 114 447.891887 38.9275549 434.465049 38.9275549 434.465049 27.1733333 474.241748 27.1733333 474.241748 38.9275549 459.103974 38.9275549"></polygon>
            <polygon id="Fill-12" fill="#FF8936" points="515.53932 114 481.612136 114 481.612136 27.1733333 494.366717 27.1733333 494.366717 100.981884 515.53932 100.981884"></polygon>
            <path d="M545.138585,48.4320168 L540.24767,81.8964612 L550.285437,81.8964612 L545.138585,48.4320168 Z M538.649699,93.7103213 L535.52219,113.552017 L522.909709,113.552017 L537.203756,26.7253501 L553.324257,26.7253501 L568.535922,113.552017 L555.40097,113.552017 L552.273461,93.7103213 L538.649699,93.7103213 Z" id="Fill-14" fill="#FF8936"></path>
            <path d="M593.138642,100.889795 C600.058923,100.889795 603.026787,97.3069104 603.026787,88.479131 C603.026787,82.9768446 601.665747,78.7541596 599.071529,76.5788371 C597.463285,75.1712755 595.485656,74.6609057 591.653999,74.6609057 L588.562533,74.6609057 L588.562533,100.889795 L593.138642,100.889795 Z M591.225059,63.8075724 C595.153304,63.8075724 596.925894,63.295016 598.69994,61.6258842 C600.982313,59.4382876 602.122771,55.9700386 602.122771,51.0867203 C602.122771,43.7617429 599.336441,40.2920168 593.379258,40.2920168 L588.562533,40.2920168 L588.562533,63.8075724 L591.225059,63.8075724 Z M575.906311,26.7253501 L593.347651,26.7253501 C607.151292,26.7253501 614.177158,35.3198347 614.177158,49.8546248 C614.177158,58.7004356 611.667405,64.2630254 605.393023,68.6852045 C612.672749,72.3519521 615.68301,78.5435838 615.68301,89.6673108 C615.68301,98.1339531 613.67665,104.199195 609.535557,108.120175 C606.147391,111.277006 602.633737,113.552017 594.47704,113.552017 L575.906311,113.552017 L575.906311,26.7253501 Z" id="Fill-16" fill="#FF8936"></path>
            <path d="M650.856646,49.1651027 C650.099829,41.581734 648.2027,38.9261021 643.526699,38.9261021 C639.229833,38.9261021 636.449509,42.2136814 636.449509,47.2678078 C636.449509,53.0831766 638.722867,56.4942397 647.695734,64.8359454 C660.84054,76.8443986 664,82.151304 664,92.3903046 C664,105.279126 655.911782,114 644.033665,114 C631.647129,114 623.432533,105.026347 623.053398,91.2527993 L635.060799,89.1012726 C635.439934,97.9499889 638.345185,102.247231 644.033665,102.247231 C648.708213,102.247231 651.739842,98.7083258 651.739842,93.0207992 C651.739842,89.8610622 650.602437,86.8277147 648.455457,83.9207567 C646.433402,81.2665777 645.675132,80.3818513 638.599394,73.9374406 C627.982156,64.0790612 624.192256,57.3789661 624.192256,48.0275974 C624.192256,35.515039 632.154096,27.1733333 644.033665,27.1733333 C655.153512,27.1733333 661.59881,33.9983652 663.115351,47.39565 L650.856646,49.1651027 Z" id="Fill-18" fill="#FF8936"></path>
            <g id="Group-10">
                <g id="Group-26" transform="translate(6.194915, 6.686441)">
                    <mask id="mask-2" fill="white">
                        <use xlink:href="#path-1"></use>
                    </mask>
                    <g id="Clip-25"></g>
                    <polygon id="Fill-24" fill="#FF8936" mask="url(#mask-2)" points="-3.19491525 58.3135593 129.805085 58.3135593 129.805085 -3.68644068 -3.19491525 -3.68644068"></polygon>
                </g>
                <g id="Group-23">
                    <mask id="mask-4" fill="white">
                        <use xlink:href="#path-3"></use>
                    </mask>
                    <g id="Clip-22"></g>
                    <polygon id="Fill-21" fill="#FFFFFF" mask="url(#mask-4)" points="-3.4509586 141.45324 141.559089 141.45324 141.559089 -3.55908864 -3.4509586 -3.55908864"></polygon>
                </g>
            </g>
        </g>
    </g>
</svg>