<?xml version="1.0" encoding="UTF-8"?>
<svg width="437px" height="115px" viewBox="0 0 437 115" version="1.1" xmlns="http://www.w3.org/2000/svg" xmlns:xlink="http://www.w3.org/1999/xlink">
    <!-- Generator: Sketch 52.4 (67378) - http://www.bohemiancoding.com/sketch -->
    <title>Group 22</title>
    <desc>Created with Sketch.</desc>
    <g id="Welcome" stroke="none" stroke-width="1" fill="none" fill-rule="evenodd">
        <g id="Desktop" transform="translate(-294.000000, -455.000000)">
            <g id="Group-22" transform="translate(294.000000, 455.000000)">
                <path d="M0,114.602 L436.046,114.602 L436.046,0 L0,0 L0,114.602 Z M5.999,108.603 L430.047,108.603 L430.047,6 L5.999,6 L5.999,108.603 Z" id="Fill-1" fill="#FFFFFF"></path>
                <polygon id="Fill-2" fill="#FFFFFF" points="38.023 86.315 46.723 86.315 46.723 28.287 38.023 28.287"></polygon>
                <polygon id="Fill-3" fill="#FFFFFF" points="75.1721 86.3152 62.5571 50.4722 62.5571 86.3152 54.4661 86.3152 54.4661 28.2872 63.2541 28.2872 75.1721 62.7372 75.1721 28.2872 83.2631 28.2872 83.2631 86.3152"></polygon>
                <polygon id="Fill-4" fill="#FFFFFF" points="114.4095 36.3782 99.7065 36.3782 99.7065 52.2112 110.4075 52.2112 110.4075 60.3022 99.7065 60.3022 99.7065 86.3152 91.0065 86.3152 91.0065 28.2872 114.4095 28.2872"></polygon>
                <g id="Group-21" transform="translate(119.000000, 26.602000)">
                    <path d="M12.2,27.3494 C15.158,27.3494 16.289,26.9144 17.246,25.5224 C18.116,24.1304 18.725,21.5204 18.725,18.5624 C18.725,15.4304 18.116,12.6464 16.985,11.3424 C16.115,10.1244 14.984,9.7764 12.2,9.7764 L9.416,9.7764 L9.416,27.3494 L12.2,27.3494 Z M9.416,59.7134 L0.716,59.7134 L0.716,1.6844 L12.896,1.6844 C22.987,1.6844 27.425,6.9044 27.425,18.4764 C27.425,25.9574 25.858,29.9584 21.596,33.0914 L28.295,59.7134 L19.073,59.7134 L13.592,35.4404 L9.416,35.4404 L9.416,59.7134 Z" id="Fill-5" fill="#FFFFFF"></path>
                    <path d="M43.1712,39.8773 C43.1712,45.3583 43.3452,47.9683 43.7802,49.1863 C44.4762,51.2743 46.0422,52.4923 48.1302,52.4923 C50.3052,52.4923 51.9592,51.1013 52.5672,48.6633 C52.8282,47.5333 53.0022,44.7493 53.0022,39.8773 L53.0022,21.5213 C53.0022,15.8663 52.8282,13.4293 52.3932,12.2113 C51.6972,10.1253 50.1312,8.9053 48.1302,8.9053 C45.8682,8.9053 44.2152,10.2983 43.6072,12.7343 C43.3452,13.8643 43.1712,16.8223 43.1712,21.5213 L43.1712,39.8773 Z M61.7022,40.8343 C61.7022,49.4463 61.0062,52.5783 58.2222,55.9723 C55.8732,58.8433 52.1322,60.5823 48.1302,60.5823 C44.0422,60.5823 40.3002,58.8433 37.9522,55.9723 C35.1682,52.5783 34.4722,49.3593 34.4722,40.8343 L34.4722,20.5643 C34.4722,12.0383 35.1682,8.8193 37.9522,5.4263 C40.3002,2.5563 44.0422,0.8153 48.1302,0.8153 C52.1322,0.8153 55.9602,2.5563 58.2222,5.4263 C61.0062,8.8193 61.7022,11.9513 61.7022,20.5643 L61.7022,40.8343 Z" id="Fill-7" fill="#FFFFFF"></path>
                    <polygon id="Fill-9" fill="#FFFFFF" points="89.9768 59.7132 77.3618 23.8702 77.3618 59.7132 69.2708 59.7132 69.2708 1.6852 78.0588 1.6852 89.9768 36.1352 89.9768 1.6852 98.0678 1.6852 98.0678 59.7132"></polygon>
                    <polygon id="Fill-11" fill="#FFFFFF" points="121.8181 59.7132 113.1181 59.7132 113.1181 9.7762 103.8971 9.7762 103.8971 1.6852 131.2141 1.6852 131.2141 9.7762 121.8181 9.7762"></polygon>
                    <polygon id="Fill-13" fill="#EE7D22" points="174.2776 59.7132 151.1356 59.7132 151.1356 1.6852 159.8356 1.6852 159.8356 51.6212 174.2776 51.6212"></polygon>
                    <path d="M194.7224,15.6927 L191.4164,38.8337 L198.2014,38.8337 L194.7224,15.6927 Z M190.1984,46.9237 L188.1974,59.7137 L179.5854,59.7137 L189.0684,1.6847 L200.3764,1.6847 L210.4694,59.7137 L201.5084,59.7137 L199.5074,46.9237 L190.1984,46.9237 Z" id="Fill-15" fill="#EE7D22"></path>
                    <path d="M228.9129,51.6214 C233.7839,51.6214 235.8719,49.1854 235.8719,43.1834 C235.8719,39.4424 234.9149,36.5724 233.0889,35.0924 C231.9569,34.1354 230.5649,33.7884 227.8679,33.7884 L225.6929,33.7884 L225.6929,51.6214 L228.9129,51.6214 Z M227.5209,25.6964 C230.2169,25.6964 231.4349,25.3484 232.6529,24.2184 C234.2189,22.7384 235.0019,20.3894 235.0019,17.0844 C235.0019,12.1254 233.0889,9.7764 228.9989,9.7764 L225.6929,9.7764 L225.6929,25.6964 L227.5209,25.6964 Z M216.9939,1.6844 L229.0859,1.6844 C238.6569,1.6844 243.5279,6.7314 243.5279,16.7364 C243.5279,22.8254 241.7879,26.6544 237.4369,29.6984 C242.4839,32.2224 244.5709,36.4844 244.5709,44.1414 C244.5709,49.9694 243.1799,54.1444 240.3089,56.8424 C237.9599,59.0164 235.5239,59.7134 229.8689,59.7134 L216.9939,59.7134 L216.9939,1.6844 Z" id="Fill-17" fill="#EE7D22"></path>
                    <path d="M269.9749,15.9529 C269.4539,10.7339 268.1489,8.9059 264.9299,8.9059 C261.9719,8.9059 260.0569,11.1679 260.0569,14.6469 C260.0569,18.6509 261.6229,20.9979 267.7999,26.7409 C276.8479,35.0059 279.0239,38.6599 279.0239,45.7059 C279.0239,54.5789 273.4549,60.5819 265.2779,60.5819 C256.7519,60.5819 251.0959,54.4059 250.8359,44.9239 L259.1009,43.4439 C259.3619,49.5349 261.3629,52.4929 265.2779,52.4929 C268.4959,52.4929 270.5839,50.0549 270.5839,46.1419 C270.5839,43.9659 269.8009,41.8779 268.3229,39.8769 C266.9299,38.0499 266.4079,37.4409 261.5369,33.0049 C254.2289,26.2189 251.6189,21.6069 251.6189,15.1699 C251.6189,6.5569 257.0999,0.8159 265.2779,0.8159 C272.9329,0.8159 277.3699,5.5129 278.4139,14.7349 L269.9749,15.9529 Z" id="Fill-19" fill="#EE7D22"></path>
                </g>
            </g>
        </g>
    </g>
</svg>