<svg xmlns="http://www.w3.org/2000/svg" width="432" height="136" viewBox="0 0 432 136">
    <g fill="#A1373A" fill-rule="evenodd">
        <path d="M0 136h432V1H0v135zm20-20h392V21H20v95z"/>
        <path d="M55.699 99.968h-9.661V45.807h-10.24v-8.775h30.334v8.775H55.699zM82.262 71.567v28.4h-9.66V37.033h9.66v25.76h10.723v-25.76h9.66v62.936h-9.66V71.567zM137.516 45.807H120.9V62.98h11.979v8.776H120.9v19.437h16.616v8.776H111.24V37.032h26.276zM171.612 99.968l-12.365-62.936h9.853l7.44 40.29 6.568-40.29h9.564L181.66 99.968zM199.624 99.968h9.661V37.032h-9.661zM240.871 99.968l-14.007-38.875v38.875h-8.983V37.032h9.756l13.234 37.366V37.032h8.984v62.936zM276.226 99.968h-9.66V45.807h-10.24v-8.775h30.333v8.775h-10.433zM304.625 52.223l-3.67 25.1h7.534l-3.864-25.1zm-5.022 33.875l-2.223 13.87h-9.564l10.53-62.936h12.558l11.206 62.936h-9.95l-2.222-13.87h-10.335zM341.43 64.867c3.284 0 4.54-.472 5.602-1.98.966-1.51 1.642-4.342 1.642-7.55 0-3.397-.676-6.417-1.932-7.832-.965-1.32-2.22-1.698-5.313-1.698h-3.09v19.06h3.09zm-3.092 35.101h-9.66V37.032h13.524c11.206 0 16.133 5.661 16.133 18.21 0 8.115-1.739 12.456-6.472 15.853l7.438 28.873h-10.24l-6.086-26.326h-4.637v26.326zM384.61 99.968h-9.66V74.492l-12.076-37.46h10.048l6.858 24.722 6.665-24.722h9.757l-11.592 37.46z"/>
    </g>
</svg>
