<svg width="377px" height="61px" viewBox="0 0 377 61" version="1.1" xmlns="http://www.w3.org/2000/svg" xmlns:xlink="http://www.w3.org/1999/xlink">
    <g id="Page-1" stroke="none" stroke-width="1" fill="none" fill-rule="evenodd">
        <g id="Group-4" fill-rule="nonzero">
            <g id="Group-3" transform="translate(92.000000, 2.000000)">
                <path d="M7.71,0.4 L7.71,56.4 L-0.29,56.4 L-0.29,0.4 L7.71,0.4 Z M37.71,0.4 L37.71,56.4 L30.1694595,56.4 L21.2505405,27.0146927 L21.2505405,56.4 L13.71,56.4 L13.71,0.4 L20.1964865,0.4 L30.1694595,33.3955022 L30.1694595,0.4 L37.71,0.4 Z M44.71,0.4 L62.71,0.4 L62.71,7.70434783 L52.15,7.70434783 L52.15,23.4044978 L59.51,23.4044978 L59.51,30.7088456 L52.15,30.7088456 L52.15,56.4 L44.71,56.4 L44.71,0.4 Z M66.71,0.4 L74.185,0.4 C80.3457143,0.4 83.1385714,1.40749625 85.3564286,4.34602699 C87.3278571,6.94872564 88.2314286,10.7268366 88.2314286,16.0161919 C88.2314286,22.9847076 87.4921429,25.5034483 84.3707143,29.6173913 L89.71,56.4 L81.4957143,56.4 L77.06,32.304048 C75.7457143,32.555922 75.4992857,32.555922 74.3492857,32.6398801 L74.3492857,56.4 L66.71,56.4 L66.71,0.4 Z M74.71,25.4 L75.71,25.4 C78.0176923,25.4 79.3253846,24.8482759 80.0176923,23.5083744 C80.5561538,22.4837438 80.71,21.2226601 80.71,16.4147783 C80.71,10.7399015 79.71,9.4 75.71,9.4 L74.71,9.4 L74.71,25.4 Z M116.71,14.9909753 L116.71,41.7275109 C116.71,48.2486172 116.471364,49.5528384 115.039545,51.9167394 C113.289545,54.6882096 109.948636,56.4 106.21,56.4 C102.471364,56.4 99.1304545,54.6882096 97.3804545,51.9167394 C95.9486364,49.5528384 95.71,48.1671033 95.71,41.7275109 L95.71,14.9909753 C95.71,8.55138282 95.9486364,7.16564774 97.3804545,4.80174672 C99.1304545,2.11179039 102.471364,0.4 106.21,0.4 C109.948636,0.4 113.289545,2.11179039 115.039545,4.80174672 C116.471364,7.16564774 116.71,8.55138282 116.71,14.9909753 Z M108.71,45.0842105 L108.71,12.7157895 C108.71,9.67875244 107.863846,8.4 105.71,8.4 C103.633077,8.4 102.71,9.67875244 102.71,12.7157895 L102.71,45.0842105 C102.71,48.1212476 103.556154,49.4 105.71,49.4 C107.786923,49.4 108.71,48.1212476 108.71,45.0842105 Z M146.71,0.4 L146.71,56.4 L139.169459,56.4 L130.250541,27.0146927 L130.250541,56.4 L122.71,56.4 L122.71,0.4 L129.196486,0.4 L139.169459,33.3955022 L139.169459,0.4 L146.71,0.4 Z M158.772731,56.4 L158.772731,7.70434783 L151.71,7.70434783 L151.71,0.4 L173.71,0.4 L173.71,7.70434783 L166.322546,7.70434783 L166.322546,56.4 L158.772731,56.4 Z" id="INFRONT" fill="#FFFFFF"></path>
                <path d="M178.71,56.4 L178.71,0.4 L186.563333,0.4 L186.563333,49.0956522 L197.71,49.0956522 L197.71,56.4 L178.71,56.4 Z M212.246913,43.8062969 L210.958322,56.4 L203.71,56.4 L211.038859,0.4 L220.703289,0.4 L227.71,56.4 L220.381141,56.4 L219.012013,43.8062969 L212.246913,43.8062969 Z M217.71,35.4 L215.21,10.4 L212.71,35.4 L217.71,35.4 Z M233.71,0.4 L240.761095,0.4 C247.476423,0.4 249.491022,0.987706147 252.261095,3.75832084 C254.695401,6.19310345 255.702701,9.38350825 255.702701,14.5049475 C255.702701,21.5574213 254.527518,24.495952 250.666204,26.9307346 C255.199051,28.6938531 256.71,31.8842579 256.71,39.9442279 C256.71,46.6608696 255.954526,49.7673163 253.772044,52.370015 C251.337737,55.2245877 247.728248,56.4 241.516569,56.4 L233.71,56.4 L233.71,0.4 Z M241.71,47.4 L242.425909,47.4 C247.596364,47.4 248.71,45.8259259 248.71,38.9 C248.71,31.9740741 247.596364,30.4 242.425909,30.4 L241.71,30.4 L241.71,47.4 Z M241.71,24.4 L242.876667,24.4 C247.722821,24.4 248.71,22.9684211 248.71,15.8947368 C248.71,9.91578947 247.543333,8.4 242.876667,8.4 L241.71,8.4 L241.71,24.4 Z M261.793333,39.8526929 L269.46,39.5266376 L269.46,41.8905386 C269.46,47.5149927 270.46,49.3082969 273.46,49.3082969 C275.793333,49.3082969 276.96,47.4334789 276.96,43.9283843 C276.96,40.3417758 276.043333,38.2224163 272.21,33.2500728 L268.376667,27.7071325 C263.626667,20.6969432 262.043333,16.9473071 262.043333,12.1379913 C262.043333,4.96477438 266.46,0.4 273.46,0.4 C278.71,0.4 282.543333,3.33449782 283.626667,8.30684134 C284.043333,10.344687 284.043333,10.5892285 284.043333,15.0724891 L276.46,15.8061135 C276.46,13.0346434 276.376667,12.0564774 276.21,10.9152838 C275.96,8.71441048 274.71,7.49170306 272.96,7.49170306 C270.876667,7.49170306 269.71,9.28500728 269.71,12.5455604 C269.71,15.8876274 270.043333,16.6212518 275.21,24.2020378 L279.126667,29.7449782 C282.71,34.8803493 284.71,40.4232897 284.71,45.0695779 C284.71,52.3243086 280.626667,56.4 273.376667,56.4 C269.21,56.4 266.293333,55.0957787 264.126667,52.2427948 C262.293333,49.7973799 261.71,47.5149927 261.71,42.7871907 C261.71,41.6459971 261.71,41.1569141 261.793333,39.8526929 Z" id="LABS" fill="#DF9546"></path>
            </g>
            <path d="M30.861711,60.9405843 L23.9776323,58.8316366 C23.2553684,58.6171674 22.8490949,57.8188652 23.0522316,57.0563078 L38.4567682,1.0321721 C38.6599049,0.269614747 39.416025,-0.159323766 40.138289,0.0551454906 L47.0223677,2.16409318 C47.7446316,2.37856243 48.1509051,3.17686466 47.9477684,3.93942202 L32.5432318,59.9635577 C32.3288097,60.7261151 31.583975,61.1669685 30.861711,60.9405843 L30.861711,60.9405843 Z M17.9169976,47.5588377 L22.6427177,42.1964757 C23.1424491,41.6301918 23.1098579,40.7287602 22.5558079,40.2087036 L12.7132736,30.9979223 L22.5558079,21.7871411 C23.1098579,21.2670844 23.1533128,20.3656529 22.6427177,19.799369 L17.9169976,14.437007 C17.42813,13.8822799 16.6024869,13.8476094 16.0701644,14.3792229 L0.415537461,29.9809226 C-0.138512487,30.5240929 -0.138512487,31.4601949 0.415537461,32.0033652 L16.0701644,47.6166218 C16.6024869,48.1482352 17.42813,48.1251216 17.9169976,47.5588377 L17.9169976,47.5588377 Z M55.9298356,47.6266504 L71.5844625,32.0173788 C72.1385125,31.4743472 72.1385125,30.5384841 71.5844625,29.9954524 L55.9298356,14.374627 C55.4083768,13.8547031 54.5827337,13.8778108 54.0830024,14.4323963 L49.3572823,19.7933897 C48.8575509,20.3595291 48.8901421,21.2607305 49.4441921,21.7806544 L59.2867264,31.0006387 L49.4441921,40.2090691 C48.8901421,40.728993 48.8466872,41.6301945 49.3572823,42.1963338 L54.0830024,47.5573272 C54.57187,48.1234666 55.3975131,48.1465743 55.9298356,47.6266504 Z" id="Shape" fill="#DF9546"></path>
        </g>
    </g>
</svg>